<?xml version="1.0" standalone="no"?><!DOCTYPE svg PUBLIC "-//W3C//DTD SVG 1.1//EN" "http://www.w3.org/Graphics/SVG/1.1/DTD/svg11.dtd"><svg t="1580449553744" class="icon" viewBox="0 0 1024 1024" version="1.1" xmlns="http://www.w3.org/2000/svg" p-id="8187" xmlns:xlink="http://www.w3.org/1999/xlink" width="200" height="200"><defs><style type="text/css"></style></defs><path d="M758.422 502.69c-25.825 0-46.764 20.939-46.764 46.764v-35.073c0-25.825-20.939-46.764-46.764-46.764-25.825 0-46.764 20.939-46.764 46.764v-23.382c0-25.825-20.939-46.764-46.764-46.764s-46.764 20.939-46.764 46.764V327.325c0-25.825-20.939-46.764-46.764-46.764-25.825 0-46.764 20.939-46.764 46.764v362.783l-32.573-47.606c-16.406-23.976-49.127-30.118-73.126-13.712-23.976 16.406-30.118 49.15-13.712 73.126 0 0 78.567 119.698 99.373 146.137 56.737 72.093 135.156 118.799 216.083 110.542 97.157-9.913 178.065-58.412 178.065-175.322v-233.82c0.002-25.825-20.937-46.763-46.762-46.763z" p-id="8188" fill="#ffffff"></path><path d="M343.111 507.408c12.256-12.733 11.869-32.991-0.865-45.247-52.178-50.221-71.981-124.603-51.681-194.119 14.409-49.344 47.505-90.307 93.191-115.341 45.687-25.034 98.023-30.886 147.366-16.476 102.664 29.98 161.797 137.894 131.817 240.558-4.954 16.964 4.782 34.733 21.747 39.687 16.963 4.953 34.732-4.783 39.687-21.748 19.201-65.754 11.465-135.383-21.784-196.061-33.25-60.678-87.773-104.669-153.526-123.871-65.754-19.2-135.384-11.465-196.061 21.785-60.678 33.25-104.669 87.773-123.871 153.526-13.186 45.153-13.743 93.102-1.613 138.665 12.13 45.563 36.456 86.887 70.346 119.506 6.208 5.975 14.202 8.944 22.187 8.944 8.395 0.001 16.779-3.282 23.06-9.808z" p-id="8189" fill="#ffffff"></path></svg>