<?xml version="1.0" standalone="no"?><!DOCTYPE svg PUBLIC "-//W3C//DTD SVG 1.1//EN" "http://www.w3.org/Graphics/SVG/1.1/DTD/svg11.dtd"><svg t="1580454614990" class="icon" viewBox="0 0 1024 1024" version="1.1" xmlns="http://www.w3.org/2000/svg" p-id="11609" xmlns:xlink="http://www.w3.org/1999/xlink" width="200" height="200"><defs><style type="text/css"></style></defs><path d="M950.857143 109.714286v804.571428c0 20.004571-16.566857 36.571429-36.571429 36.571429h-292.571428c-20.004571 0-36.571429-16.566857-36.571429-36.571429V109.714286c0-20.004571 16.566857-36.571429 36.571429-36.571429h292.571428c20.004571 0 36.571429 16.566857 36.571429 36.571429zM438.857143 109.714286v804.571428c0 20.004571-16.566857 36.571429-36.571429 36.571429H109.714286c-20.004571 0-36.571429-16.566857-36.571429-36.571429V109.714286c0-20.004571 16.566857-36.571429 36.571429-36.571429h292.571428c20.004571 0 36.571429 16.566857 36.571429 36.571429z" fill="#ffffff" p-id="11610"></path></svg>